<?xml version="1.0" encoding="UTF-8" standalone="no"?>
<!-- Created with Inkscape (http://www.inkscape.org/) -->

<svg
   xmlns:dc="http://purl.org/dc/elements/1.1/"
   xmlns:cc="http://creativecommons.org/ns#"
   xmlns:rdf="http://www.w3.org/1999/02/22-rdf-syntax-ns#"
   xmlns:svg="http://www.w3.org/2000/svg"
   xmlns="http://www.w3.org/2000/svg"
   xmlns:sodipodi="http://sodipodi.sourceforge.net/DTD/sodipodi-0.dtd"
   xmlns:inkscape="http://www.inkscape.org/namespaces/inkscape"
   width="210mm"
   height="297mm"
   viewBox="0 0 210 297"
   version="1.1"
   id="svg8"
   inkscape:version="0.92.3 (2405546, 2018-03-11)"
   sodipodi:docname="icone.svg">
  <defs
     id="defs2">
    <filter
       inkscape:collect="always"
       style="color-interpolation-filters:sRGB"
       id="filter4568"
       x="-0.042306447"
       width="1.0846129"
       y="-0.055464326"
       height="1.1109287">
      <feGaussianBlur
         inkscape:collect="always"
         stdDeviation="2.0628072"
         id="feGaussianBlur4570" />
    </filter>
  </defs>
  <sodipodi:namedview
     id="base"
     pagecolor="#ffffff"
     bordercolor="#666666"
     borderopacity="1.0"
     inkscape:pageopacity="0.0"
     inkscape:pageshadow="2"
     inkscape:zoom="0.87260274"
     inkscape:cx="351.663"
     inkscape:cy="615.71429"
     inkscape:document-units="mm"
     inkscape:current-layer="layer1"
     showgrid="false"
     inkscape:snap-global="false"
     inkscape:window-width="1366"
     inkscape:window-height="715"
     inkscape:window-x="-8"
     inkscape:window-y="-8"
     inkscape:window-maximized="1" />
  <metadata
     id="metadata5">
    <rdf:RDF>
      <cc:Work
         rdf:about="">
        <dc:format>image/svg+xml</dc:format>
        <dc:type
           rdf:resource="http://purl.org/dc/dcmitype/StillImage" />
        <dc:title></dc:title>
      </cc:Work>
    </rdf:RDF>
  </metadata>
  <g
     inkscape:label="Camada 1"
     inkscape:groupmode="layer"
     id="layer1">
    <rect
       style="opacity:1;fill:#2ca089;fill-opacity:1;stroke:none;stroke-width:7.60771275;stroke-linecap:butt;stroke-linejoin:bevel;stroke-miterlimit:4;stroke-dasharray:none;stroke-dashoffset:0;stroke-opacity:1;paint-order:normal"
       id="rect3726"
       width="135.46666"
       height="135.46666"
       x="33.214092"
       y="70.423851"
       inkscape:export-xdpi="96"
       inkscape:export-ydpi="96" />
    <path
       style="fill:#ffffff;stroke:none;stroke-width:0.32067519px;stroke-linecap:butt;stroke-linejoin:miter;stroke-opacity:1;filter:url(#filter4568)"
       d="m 64.444441,100.94127 c -5.970599,6.78824 -14.111536,11.74673 -18.779266,19.60187 -2.667214,6.82581 0.01784,14.56586 -3.11719,21.29075 -1.156937,7.52487 7.010544,10.45124 11.457931,14.21435 6.486545,7.93972 17.505638,9.5655 27.152215,8.85911 5.682197,-0.33078 11.469407,-0.0568 16.863062,1.87335 5.628557,0.65777 14.290487,-0.48546 16.010447,6.64022 2.76147,5.21856 8.77385,7.08563 13.8088,9.35831 5.29647,0.30557 3.99418,-8.38782 9.86627,-7.67225 6.58184,-3.1964 15.15185,-5.11373 18.03688,-12.74703 3.08209,-4.89205 4.74874,-10.81457 3.01252,-16.49092 -1.49206,-6.16194 -3.74251,-12.11523 -5.28179,-18.2622 -1.89504,-6.86042 -8.13947,-10.88309 -11.29532,-16.96055 -2.54477,-6.48167 -9.51571,-7.00243 -14.88174,-9.76442 -6.09965,-3.482674 -12.33871,-7.890361 -19.74116,-7.301225 -9.048167,0.105179 -18.281247,-0.660907 -27.067278,1.990242 -4.896428,1.481768 -10.02186,2.448554 -14.727801,4.409924 l -0.678621,0.452089 -0.637959,0.50833 z"
       id="path3728"
       inkscape:connector-curvature="0"
       transform="matrix(1.0226109,0,0,1.0728662,-1.9792799,-9.7637851)" />
    <g
       id="g4607"
       transform="rotate(-15,58.123034,148.36338)">
      <rect
         y="165.7094"
         x="15.918619"
         height="11.218831"
         width="177.37881"
         id="rect4572"
         style="opacity:1;fill:#ffffff;fill-opacity:1;stroke:none;stroke-width:5;stroke-linecap:butt;stroke-linejoin:bevel;stroke-miterlimit:4;stroke-dasharray:none;stroke-dashoffset:0;stroke-opacity:1;paint-order:normal" />
      <rect
         y="178.97488"
         x="15.918619"
         height="5.7610211"
         width="177.37881"
         id="rect4572-1"
         style="opacity:1;fill:#ffffff;fill-opacity:1;stroke:none;stroke-width:3.58299279;stroke-linecap:butt;stroke-linejoin:bevel;stroke-miterlimit:4;stroke-dasharray:none;stroke-dashoffset:0;stroke-opacity:1;paint-order:normal" />
      <rect
         y="186.78256"
         x="15.918619"
         height="3.3353283"
         width="177.37881"
         id="rect4572-1-1"
         style="opacity:1;fill:#ffffff;fill-opacity:1;stroke:none;stroke-width:2.72624874;stroke-linecap:butt;stroke-linejoin:bevel;stroke-miterlimit:4;stroke-dasharray:none;stroke-dashoffset:0;stroke-opacity:1;paint-order:normal" />
    </g>
    <path
       style="fill:#000000;stroke-width:0.16512884"
       d="m 127.63371,179.28778 c -0.71076,-0.25399 -1.6792,-0.83475 -1.96377,-1.17762 -0.11695,-0.14098 -0.47954,-0.2457 -0.85059,-0.2457 -0.52339,0 -0.77808,-0.12256 -1.33577,-0.64276 -0.59689,-0.55678 -0.6596,-0.67827 -0.46878,-0.90821 0.1212,-0.146 0.31773,-0.26543 0.4368,-0.26543 0.31679,0 1.88975,1.01016 1.88975,1.2136 0,0.1075 0.0754,0.098 0.19815,-0.0246 0.27626,-0.27627 0.81445,-0.24706 1.26517,0.0685 0.60645,0.42479 0.69775,0.12463 0.51029,-1.67761 -0.34591,-3.32554 -0.35733,-3.63235 -0.16222,-4.35351 0.18762,-0.69349 0.70967,-1.35084 1.41502,-1.78177 0.22199,-0.13563 0.26547,-0.2395 0.13822,-0.33026 -0.25722,-0.18345 -0.88634,-1.24349 -0.88708,-1.4947 -9.7e-4,-0.40336 0.26638,-0.19786 0.46785,0.35928 0.11248,0.31114 0.42722,0.70667 0.69937,0.87899 0.45946,0.29091 0.59175,0.29803 1.85145,0.0997 3.5889,-0.56483 4.98337,-1.10013 6.58473,-2.52772 1.64734,-1.4686 2.18898,-3.20792 1.4645,-4.70285 -0.17892,-0.36925 -0.96059,-1.41445 -1.73703,-2.32266 -1.55621,-1.82035 -2.06583,-2.70105 -2.06583,-3.57008 0,-1.1109 -0.7201,-1.92831 -3.38514,-3.84261 -0.25365,-0.1822 -0.28541,-0.28346 -0.13695,-0.43656 0.15015,-0.15484 0.40819,-0.0663 1.15591,0.39667 0.52942,0.3278 1.22071,0.81284 1.53617,1.07783 l 0.57357,0.48186 0.2705,-1.59459 c 0.31219,-1.84037 0.68221,-2.83309 1.05604,-2.83309 0.40837,0 0.46065,0.38835 0.17968,1.33447 -0.63329,2.13253 -0.14809,4.63996 1.28704,6.65112 0.91267,1.27899 1.33404,1.64479 3.17716,2.75809 0.90953,0.54938 1.5403,1.05706 1.74554,1.40488 0.33783,0.57259 1.4271,1.35434 2.52809,1.81437 1.01753,0.42514 2.02311,0.24562 3.86039,-0.68917 1.8286,-0.93037 2.13279,-1.28642 2.73928,-3.2063 0.72456,-2.29365 0.95801,-3.99186 0.88448,-6.43404 -0.0746,-2.47725 -0.16555,-2.77932 -1.54627,-5.13526 l -0.73502,-1.25415 -0.83535,0.41342 c -0.45947,0.22738 -1.29512,0.54083 -1.85703,0.69654 l -1.02164,0.28314 0.0473,0.58982 c 0.026,0.32441 0.2675,1.22538 0.53666,2.00219 0.26916,0.77678 0.48937,1.68129 0.48937,2.01002 0,0.4741 0.13255,0.73023 0.64108,1.23877 0.41816,0.41816 0.7914,0.64111 1.07336,0.64111 0.5041,0 0.59545,0.42132 0.1238,0.57102 -0.39573,0.1256 -1.06783,-0.13089 -1.51514,-0.5782 -0.19284,-0.19284 -0.36595,-0.32585 -0.38467,-0.29556 -0.0187,0.0302 -0.2121,0.4475 -0.42974,0.92721 -0.40019,0.88207 -0.7576,1.3191 -0.93428,1.14241 -0.0531,-0.0531 0.0596,-0.31599 0.25057,-0.58415 0.19097,-0.26817 0.43059,-0.84888 0.53252,-1.29044 0.16829,-0.7291 0.13987,-0.93933 -0.30939,-2.28785 -0.27209,-0.81674 -0.59098,-2.03027 -0.70868,-2.69674 l -0.21395,-1.21176 -0.67274,0.0703 c -0.80348,0.084 -1.41582,-0.10641 -1.41582,-0.44017 0,-0.35622 0.11768,-0.39597 2.25499,-0.76109 3.14112,-0.53665 4.80644,-1.55869 5.73371,-3.51892 0.87126,-1.84185 0.9161,-3.66927 0.15018,-6.11999 -0.36146,-1.15655 -0.54056,-1.4461 -1.58323,-2.5595 -0.64661,-0.69048 -1.55839,-1.62914 -2.02616,-2.08591 -1.1097,-1.08358 -1.43689,-1.73799 -1.42686,-2.85383 0.0153,-1.70173 -0.59107,-2.86249 -2.98174,-5.70805 -1.41695,-1.68656 -1.45208,-1.75719 -1.70048,-3.42001 -0.29807,-1.99526 -0.67824,-2.71828 -2.26213,-4.30218 -1.34383,-1.34383 -3.69535,-3.22763 -3.84375,-3.07923 -0.0446,0.0446 0.003,0.65128 0.10749,1.34831 0.18776,1.26237 0.18641,1.2716 -0.34442,2.34986 -0.4374,0.88852 -0.72963,1.22767 -1.63068,1.89244 -1.13773,0.83944 -1.47133,0.95324 -1.8078,0.61677 -0.30538,-0.30538 -0.26108,-0.3968 0.69769,-1.43969 1.13453,-1.2341 1.26646,-1.86852 0.78467,-3.77369 -0.99364,-3.92933 -3.85636,-7.02482 -8.26496,-8.93691 -0.82877,-0.35947 -1.50688,-0.63106 -1.50688,-0.60354 0,0.0275 0.11478,0.32464 0.25496,0.66027 0.33854,0.81023 0.27455,2.81525 -0.0898,2.81525 -0.15347,0 -0.22959,-0.12562 -0.2001,-0.33025 0.13799,-0.9578 0.0551,-2.04155 -0.19279,-2.52094 -0.33491,-0.64766 -2.51804,-2.54591 -4.31595,-3.75273 -2.25898,-1.516293 -4.90519,-2.399475 -8.1501,-2.720109 -1.03283,-0.102024 -1.91094,-0.152499 -1.95135,-0.11211 -0.0405,0.0405 0.32161,0.285232 0.80454,0.544012 0.91729,0.491581 1.18526,0.991637 0.7879,1.470387 -0.30525,0.3678 -0.61199,0.29732 -2.21835,-0.50969 -1.99985,-1.004703 -3.39719,-1.281353 -6.03054,-1.19394 -1.48134,0.04923 -2.2506,0.150079 -2.72464,0.357416 -0.363272,0.158903 -1.106349,0.362149 -1.651277,0.451635 -0.597869,0.09813 -1.135973,0.299069 -1.356921,0.506549 -0.611055,0.57379 -0.946998,1.85044 -0.947034,3.59894 -3.7e-5,1.72286 0.120231,2.07235 1.128033,3.27862 0.663923,0.79467 0.86972,1.30443 0.625309,1.54884 -0.237177,0.23717 -1.608689,-0.58587 -1.898708,-1.13939 l -0.224779,-0.42901 -0.374084,0.77278 c -0.443096,0.91529 -1.339406,1.91282 -1.718775,1.91282 -0.429921,0 -0.317689,-0.33439 0.396568,-1.18147 1.089176,-1.2917 1.437044,-2.73136 1.152031,-4.76774 -0.283149,-2.02312 -0.606098,-2.77309 -1.638104,-3.80402 -1.226073,-1.224758 -1.99739,-1.493025 -4.596005,-1.598434 -2.370067,-0.09613 -2.931914,0.01725 -5.168637,1.04244 l -1.607332,0.736764 -2.536596,-0.0439 c -2.389036,-0.0412 -2.588834,-0.0202 -3.434774,0.36153 -0.919679,0.41502 -2.379424,1.46029 -4.716186,3.37706 -1.526467,1.25212 -2.331163,1.59896 -4.809923,2.07327 -2.383424,0.45606 -3.656836,0.89228 -4.405041,1.50902 -0.759791,0.62628 -1.034285,1.14174 -1.36315,2.55976 -0.365224,1.5748 -0.852387,2.43038 -2.325841,4.08471 -2.51889,2.82807 -3.03062,3.79795 -3.368551,6.38428 -0.08896,0.68115 -0.237831,1.80634 -0.330754,2.50042 -0.145986,1.09058 -0.12977,1.3441 0.119382,1.8666 0.379053,0.79487 0.20524,1.05423 -1.026213,1.53122 -1.221406,0.47311 -1.936802,1.16533 -2.604021,2.5197 -0.523342,1.06228 -0.527693,1.09211 -0.62704,4.29335 -0.07588,2.44577 -0.167972,3.40294 -0.381513,3.9667 -0.462477,1.22095 -1.079203,3.96042 -1.189593,5.28413 -0.132604,1.59005 0.139902,2.91169 0.783584,3.80028 0.868363,1.19873 2.71041,1.7796 3.188786,1.00556 0.05721,-0.0926 0.12023,-0.97085 0.139889,-1.95167 0.03551,-1.76912 0.04206,-1.79575 0.822112,-3.35079 0.432454,-0.86213 0.785414,-1.60958 0.784359,-1.66103 -0.0013,-0.0514 -0.524942,0.15559 -1.164188,0.46008 -0.813471,0.38744 -1.210037,0.6793 -1.321505,0.97246 -0.197616,0.51976 -0.713165,0.47114 -0.790805,-0.0746 -0.0783,-0.55019 0.370701,-0.96323 1.863706,-1.71454 1.478107,-0.74382 2.236504,-1.44592 2.236504,-2.07042 0,-0.23183 -0.315811,-1.09709 -0.701797,-1.9228 -0.663158,-1.41866 -0.701711,-1.58313 -0.70027,-2.98747 0.0013,-1.3139 0.05648,-1.59143 0.475674,-2.39437 0.625284,-1.19768 1.334753,-2.08157 2.137702,-2.66321 0.632847,-0.45844 1.430756,-0.63667 1.430756,-0.3196 0,0.0851 -0.445447,0.61556 -0.989889,1.17891 -2.052924,2.12426 -2.409773,3.90341 -1.492071,7.43895 0.672564,2.59114 0.621405,3.14709 -0.536213,5.82678 -0.845746,1.95772 -0.86183,2.02522 -0.835201,3.5045 0.01842,1.02124 0.113442,1.67524 0.294443,2.02518 0.531086,1.02702 2.770936,2.31412 3.645213,2.09469 0.568332,-0.14264 0.834245,-0.82821 0.96611,-2.49074 0.156494,-1.97314 0.818004,-4.23147 1.813844,-6.19235 0.484292,-0.95362 0.972134,-2.01251 1.084074,-2.35307 0.399015,-1.21406 1.166297,-0.61175 1.170648,0.91895 0.0024,0.95363 0.345578,2.1199 1.05135,3.57613 0.328877,0.67861 0.597977,1.4032 0.597977,1.61019 0,0.61497 -1.038236,2.69791 -1.319142,2.64649 -0.414577,-0.0758 -0.38567,-0.62013 0.08205,-1.54457 0.37892,-0.74892 0.420334,-0.95819 0.273173,-1.38033 -0.26475,-0.75946 -1.142045,-1.95244 -1.525207,-2.07406 -0.903849,-0.28688 -1.563698,1.37376 -1.494251,3.76055 0.09817,3.3744 0.07031,4.35553 -0.142447,5.00606 -0.203046,0.62095 -0.188297,0.7397 0.196272,1.57972 0.46102,1.00699 1.30307,1.90897 2.360807,2.52886 1.08782,0.63749 3.186521,1.27819 4.268425,1.30306 0.916127,0.0209 1.000324,-0.0109 1.441446,-0.53881 0.257671,-0.30864 0.59777,-0.92069 0.75579,-1.36014 0.299825,-0.83379 0.597674,-1.06701 0.545873,-0.42744 -0.07612,0.93908 0.03078,1.32943 0.48914,1.78786 0.600946,0.60094 1.454898,0.63081 2.896523,0.10128 1.406927,-0.51676 1.672235,-0.97018 1.776406,-3.03609 0.06411,-1.27158 0.186892,-1.88768 0.572101,-2.87119 1.029207,-2.6277 3.194968,-5.32139 6.078997,-7.56085 2.009376,-1.56029 3.468079,-3.64784 3.736804,-5.3478 0.397161,-2.5124 -1.352496,-5.68631 -4.086516,-7.41299 -1.216109,-0.76804 -2.212143,-1.80737 -2.621702,-2.73567 -0.164384,-0.37257 -0.463313,-0.75233 -0.664286,-0.8439 -0.411413,-0.18746 -1.565856,-1.52991 -1.565856,-1.82088 0,-0.35327 0.286201,-0.19156 0.680514,0.38452 0.216051,0.31565 0.639948,0.70577 0.942004,0.86692 0.541073,0.28869 0.553738,0.28743 0.857877,-0.0858 0.169777,-0.20826 0.353977,-0.72841 0.40933,-1.1559 0.166129,-1.28324 0.245708,-1.54106 0.438828,-1.42171 0.261126,0.16139 0.04593,1.92034 -0.342244,2.79795 l -0.318102,0.71914 0.499636,0.75429 c 0.641123,0.96792 3.738307,3.05847 4.533258,3.05989 0.733939,9.7e-4 1.957369,-0.87965 2.906947,-2.09319 0.655936,-0.83828 0.816308,-1.17776 0.897075,-1.89899 0.145924,-1.30301 0.425776,-1.60421 0.314477,-0.33844 l -0.09102,1.03515 0.492061,-0.25444 c 0.270627,-0.13995 0.67832,-0.32529 0.905995,-0.41185 0.650408,-0.24729 0.508265,0.14215 -0.152676,0.41831 -0.311642,0.13021 -0.887524,0.61981 -1.279752,1.08799 -1.523884,1.81905 -1.830509,2.11798 -2.509617,2.44673 -0.38618,0.18695 -0.901607,0.33989 -1.145402,0.33989 -0.243781,0 -0.443241,0.0273 -0.443241,0.0607 0,0.0333 0.345045,0.57211 0.766762,1.19718 1.110701,1.64624 1.416877,2.43561 1.529096,3.94222 l 0.09853,1.32249 0.508919,0.0498 c 0.384822,0.0375 0.726813,-0.11406 1.402479,-0.62175 1.130543,-0.84946 3.091402,-1.8055 5.106584,-2.48979 1.851077,-0.62855 2.57606,-0.97577 3.287758,-1.57463 1.194355,-1.00498 1.649061,-2.89696 1.383343,-5.75576 -0.16447,-1.76935 -0.179049,-1.81479 -0.726899,-2.26563 -0.307485,-0.25304 -0.83336,-0.68987 -1.168599,-0.97074 -0.669473,-0.56089 -1.376178,-1.84213 -1.228436,-2.22713 0.163911,-0.42715 0.567508,-0.26365 0.755537,0.3061 0.226669,0.6868 1.028165,1.51974 1.881038,1.95486 0.645973,0.32955 0.654251,0.32962 1.082002,0.01 0.237067,-0.177 0.691155,-0.81426 1.009065,-1.41613 0.31792,-0.60187 0.63376,-1.09546 0.70188,-1.09685 0.41742,-0.009 -0.30103,1.71845 -1.217091,2.92565 -0.689701,0.90889 -0.803023,2.04647 -0.38584,3.87305 0.286639,1.255 0.28699,1.3567 0.0086,2.42969 -0.542419,2.09128 -0.1882,2.58605 1.718071,2.39981 1.63777,-0.15998 7.25055,-1.93998 8.99444,-2.85239 1.19128,-0.6233 1.63799,-0.96825 2.28306,-1.76304 0.4411,-0.54345 0.91304,-1.19887 1.04874,-1.45646 0.64853,-1.23088 0.9156,-4.57924 0.54664,-6.85301 -0.43725,-2.69455 -2.12498,-4.38719 -5.06906,-5.08376 -0.87578,-0.20719 -1.66362,-0.24514 -3.65885,-0.17622 -2.932,0.1013 -4.19862,-0.0567 -5.45021,-0.67997 -0.850327,-0.42344 -1.67358,-1.23602 -1.464291,-1.44531 0.05393,-0.054 0.483565,0.16704 0.954682,0.49112 1.597809,1.09909 2.862989,1.26835 6.715959,0.89841 3.2884,-0.31573 5.55117,0.27735 7.14711,1.8733 0.76512,0.76511 2.14578,3.36976 2.58243,4.87178 0.49893,1.71626 -0.0233,4.84612 -1.09934,6.58697 -0.91423,1.47925 -2.38112,2.82155 -3.95209,3.61641 -2.34574,1.18685 -7.70775,2.64248 -10.65255,2.89187 -3.740545,0.3168 -4.581139,0.60081 -9.226423,3.11753 -2.546051,1.3794 -2.666597,1.46911 -4.200675,3.12574 -0.868677,0.93807 -2.109426,2.07198 -2.757216,2.5198 -0.758398,0.52429 -1.722241,1.44625 -2.706714,2.58913 -3.614028,4.19548 -4.810915,7.00425 -3.815826,8.95479 0.553957,1.08585 1.874505,2.39133 2.858067,2.82544 0.669,0.29527 1.248591,0.39425 2.620783,0.44754 1.628189,0.0632 1.897484,0.027 3.550277,-0.47713 2.350445,-0.71697 3.257374,-0.70628 6.225891,0.0734 2.591681,0.6807 3.334468,0.71907 4.9749,0.25709 0.635744,-0.17905 1.470716,-0.40349 1.855489,-0.49877 0.611097,-0.15131 0.752087,-0.27775 1.114527,-0.99935 0.89439,-1.7807 2.72574,-3.44938 4.95617,-4.51594 1.26716,-0.60594 3.13474,-1.14434 3.40025,-0.98027 0.39152,0.24197 -0.003,0.61191 -1.01543,0.95184 -2.83246,0.95116 -4.64,2.7011 -5.86355,5.67663 -0.69166,1.68209 -0.43116,2.80118 0.88377,3.79679 1.24069,0.9394 2.89544,1.34647 10.27345,2.52731 5.48986,0.87864 9.03344,2.22452 9.85024,3.74122 0.27702,0.51439 0.2762,0.55019 -0.0196,0.87714 -0.37771,0.41736 -0.7605,0.32427 -1.59998,-0.38913 -1.04253,-0.88593 -2.40924,-1.61671 -4.06853,-2.17542 -1.87325,-0.63075 -2.6759,-0.81489 -2.6759,-0.61393 0,0.0794 0.66979,0.82439 1.48838,1.65556 1.13195,1.1493 1.62625,1.79891 2.06412,2.71257 0.31665,0.66076 0.57574,1.30358 0.57574,1.4285 0,0.12493 0.31439,0.83294 0.69865,1.57338 0.49466,0.95314 1.07327,1.72722 1.98155,2.65095 0.70558,0.71759 1.28288,1.39584 1.28288,1.50721 0,0.11139 -0.1149,0.29788 -0.25531,0.41443 -0.21157,0.1756 -0.33181,0.15541 -0.70181,-0.11781 -0.46858,-0.34598 -2.99685,-3.34749 -3.00263,-3.56464 -0.003,-0.13179 -0.73661,-1.29467 -2.73145,-4.33264 -0.65599,-0.99904 -1.38431,-2.15777 -1.61848,-2.57494 -0.92751,-1.65238 -2.20278,-2.13315 -5.32284,-2.0067 -3.16125,0.12811 -5.78898,-0.51876 -7.2184,-1.77699 -0.81152,-0.71434 -1.29124,-1.56252 -1.31281,-2.32113 -0.0187,-0.65551 -0.64259,-1.31055 -1.248366,-1.31055 -0.261224,0 -0.838644,0.2409 -1.283147,0.53532 -1.177241,0.77978 -2.417008,0.80905 -5.440768,0.1285 -3.253907,-0.73236 -4.646497,-0.80553 -6.383124,-0.33539 -1.819323,0.49251 -3.440592,0.39433 -5.66419,-0.34299 -1.202958,-0.39891 -1.838677,-0.7246 -2.596238,-1.33018 -1.215164,-0.97136 -1.563324,-0.9979 -2.858552,-0.21795 -0.533378,0.32118 -1.30924,0.66175 -1.724132,0.75681 -0.419474,0.0962 -2.477051,0.16776 -4.634873,0.16139 l -3.880536,-0.011 -1.222934,-0.61593 c -2.056486,-1.03576 -3.439063,-2.52427 -4.07317,-4.38529 -0.367878,-1.07968 -0.679957,-1.29045 -2.155822,-1.45596 -1.077045,-0.12071 -1.483332,-0.26254 -2.581793,-0.90078 -0.754434,-0.43836 -1.767666,-0.86586 -2.405215,-1.01478 -0.605903,-0.14156 -1.392335,-0.32904 -1.747645,-0.41665 -0.952342,-0.23484 -2.412172,-1.75461 -2.903833,-3.02313 -0.317774,-0.81987 -0.383707,-1.301 -0.384471,-2.80595 -0.0013,-1.93737 0.249504,-3.24104 1.227686,-6.38957 0.52774,-1.69868 0.579808,-2.23889 0.482375,-5.00548 -0.06752,-1.91867 0.186357,-2.90033 1.031086,-3.98607 2.53399,-3.257 2.694338,-3.62132 3.022536,-6.8671 0.361685,-3.57696 1.053787,-5.12821 3.141506,-7.04123 0.869937,-0.79714 1.177689,-1.22991 1.731815,-2.43543 0.37063,-0.80632 0.86709,-1.87473 1.103237,-2.37424 0.55712,-1.1784 2.022672,-2.63744 3.293684,-3.27906 0.594124,-0.29991 1.605841,-0.61546 2.467124,-0.7695 1.916393,-0.34274 3.613618,-0.84718 4.432313,-1.31736 0.363284,-0.20863 1.507231,-1.13083 2.54211,-2.0493 2.969742,-2.635734 4.350962,-3.265676 6.952801,-3.171058 3.201936,0.116474 3.29777,0.105683 4.71158,-0.526205 2.703719,-1.208506 5.648869,-1.240785 9.969046,-0.109196 1.84458,0.483135 2.713706,0.423856 5.112609,-0.348697 2.854321,-0.919234 3.956461,-0.992964 5.972941,-0.399655 1.4809,0.435721 1.64574,0.450792 3.45782,0.316165 2.7939,-0.207601 4.34179,-0.146976 6.22821,0.243939 3.44567,0.71399 5.36073,1.567962 9.0719,4.045357 1.1019,0.73556 2.83641,1.78324 3.85449,2.32817 3.32948,1.78206 6.37611,4.37126 7.59914,6.45814 0.31901,0.54433 0.68046,0.79361 2.36813,1.63316 1.73084,0.86102 2.16579,1.1654 3.32122,2.32425 0.73125,0.73342 1.60612,1.80566 1.94411,2.38272 0.57956,0.98947 0.69934,1.39616 1.30053,4.41595 0.13413,0.67367 0.348,1.05942 0.96126,1.73383 1.49551,1.64466 2.85682,3.34603 3.17292,3.96559 0.25787,0.50544 0.29706,0.81572 0.21012,1.66417 -0.10233,0.99855 -0.0852,1.06758 0.40263,1.62316 0.28021,0.31913 0.96398,0.82251 1.5195,1.11859 2.00199,1.06704 2.65407,1.97739 2.96364,4.13747 0.0977,0.68116 0.33215,1.88976 0.52118,2.68578 0.41438,1.74508 0.36857,3.21362 -0.13014,4.17077 -0.18822,0.36124 -0.65019,1.23671 -1.02662,1.94545 -0.97497,1.83573 -0.94947,2.38402 0.19671,4.22869 1.17932,1.89804 1.60238,3.08523 1.71162,4.80322 0.0771,1.21263 0.017,1.69569 -0.44116,3.55027 -0.29174,1.18069 -0.56525,2.33245 -0.60782,2.55951 -0.13373,0.71324 -1.18997,2.43077 -2.01715,3.27999 -0.90787,0.93208 -2.02638,1.55004 -3.29141,1.81845 -1.32821,0.28183 -1.96894,0.22442 -3.49294,-0.31298 -0.7676,-0.27066 -1.5564,-0.49211 -1.75285,-0.49211 -0.56994,0 -1.10472,0.53829 -1.8063,1.81817 -0.77565,1.41499 -1.87136,2.4564 -3.38812,3.22023 -1.41365,0.71192 -2.47944,1.01238 -4.68697,1.32139 -2.21457,0.30999 -2.49502,0.376 -3.29046,0.77462 -1.39745,0.70029 -1.60738,2.65285 -0.61774,5.74564 0.58636,1.83246 0.61339,2.16507 0.20583,2.53391 -0.35765,0.32366 -0.72461,0.3345 -1.53389,0.0453 z m -2.22827,-9.8416 c -0.46651,-0.1885 -1.05771,-0.95963 -0.9503,-1.23953 0.15478,-0.40341 0.51327,-0.3992 1.07143,0.0126 0.70818,0.52249 0.88594,0.84524 0.63324,1.14972 -0.2236,0.26943 -0.26752,0.27392 -0.75437,0.0772 z m 1.37906,-4.55982 c -0.0576,-0.0577 0.0211,-0.29725 0.17508,-0.53229 0.19502,-0.29762 0.28012,-0.77431 0.28037,-1.57021 l 3.5e-4,-1.14284 -1.04723,-0.96357 c -1.56738,-1.4422 -3.8776,-2.91531 -5.20359,-3.31805 -0.96812,-0.29407 -1.37486,-0.32902 -2.72761,-0.23447 -2.29023,0.1601 -2.82819,0.31559 -3.40623,0.98442 -0.27247,0.31528 -0.70238,0.81442 -0.95537,1.10924 -0.34845,0.40607 -0.50632,0.48966 -0.65116,0.34482 -0.14485,-0.14485 -0.0907,-0.30156 0.22348,-0.64641 0.22807,-0.25034 0.54756,-0.66897 0.70999,-0.93025 0.16243,-0.26128 0.51035,-0.55624 0.77316,-0.65544 0.62668,-0.23655 0.60342,-0.3779 -0.0834,-0.50674 -0.69012,-0.12946 -1.34438,-0.62663 -1.68082,-1.27719 -0.20322,-0.393 -0.21733,-0.60155 -0.0708,-1.04554 0.19245,-0.58313 0.66154,-1.12076 0.66154,-0.75821 0,0.10641 -0.11563,0.41726 -0.25708,0.69068 -0.23658,0.45753 -0.23331,0.53784 0.0412,1.00777 0.1641,0.28082 0.59559,0.66645 0.95888,0.85696 0.59748,0.31332 0.93632,0.34642 3.55027,0.34687 2.75652,5e-4 2.93161,0.02 3.79796,0.4246 1.16989,0.54629 1.73467,0.41544 2.79851,-0.64839 0.8991,-0.89911 1.04515,-1.38912 0.74884,-2.51241 -0.17702,-0.67104 -0.17415,-0.83275 0.0176,-0.9919 0.26785,-0.22229 0.27576,-0.20448 0.56682,1.27555 l 0.19974,1.01564 0.57507,-0.24027 c 0.96157,-0.40177 1.21136,-0.19012 0.36261,0.30727 -0.96788,0.56722 -1.90024,1.59941 -2.04658,2.26576 -0.12907,0.58764 0.18006,1.19809 0.76531,1.51131 0.19531,0.10444 0.95696,0.63795 1.69256,1.1854 1.75551,1.30647 2.42642,1.60103 3.64928,1.60215 0.99112,9.7e-4 1.37608,-0.15264 2.63287,-1.05026 0.61054,-0.43605 0.87655,-0.13669 0.40793,0.45907 -0.19459,0.24738 -0.32677,0.46447 -0.29371,0.48239 0.0332,0.0179 0.35111,0.18119 0.70677,0.36284 0.76172,0.38902 1.08375,0.81256 0.81908,1.07724 -0.12742,0.12742 -0.4216,0.0268 -1.03336,-0.3535 l -0.85525,-0.53165 -1.27473,0.19401 c -1.81001,0.27551 -2.46618,0.23729 -3.54525,-0.20647 l -0.94949,-0.39047 -3.3e-4,0.93108 c -3.2e-4,1.23126 -0.62389,2.48108 -1.03352,2.07146 z m 20.23625,-4.28965 c 0.0716,-0.0761 0.32465,-0.16437 0.56246,-0.19621 1.30285,-0.17448 2.02075,-1.028 2.4349,-2.89493 0.13156,-0.59305 0.42282,-0.41855 0.42282,0.25334 0,0.80055 -0.62372,1.91235 -1.33801,2.38504 -0.58535,0.38736 -2.38972,0.7797 -2.08217,0.45276 z m -55.311528,-8.317 c -0.56312,-0.25568 -0.894797,-0.5854 -1.30055,-1.29284 -0.01393,-0.0242 -0.523997,0.18923 -1.133499,0.47445 -0.89996,0.42113 -1.249719,0.50261 -1.8615,0.43366 -0.72216,-0.0814 -1.096632,-0.3471 -0.984909,-0.69883 0.02885,-0.0908 0.494255,-0.16514 1.034249,-0.16514 1.372906,0 2.24408,-0.42658 2.873169,-1.40693 0.363225,-0.56603 0.77082,-0.92422 1.484568,-1.30466 1.307458,-0.69687 1.92473,-1.23694 2.336689,-2.04443 0.460984,-0.90362 0.343845,-1.89735 -0.337603,-2.86415 -0.28242,-0.40067 -0.513489,-0.80061 -0.513489,-0.88879 0,-0.39893 0.482656,-0.088 1.080693,0.6962 0.601383,0.78857 0.653159,0.93913 0.653159,1.89898 0,0.57337 0.0037,1.04248 0.0086,1.04248 0.0049,0 0.436903,-0.4151 0.960728,-0.92247 0.523828,-0.50736 1.37464,-1.11758 1.890674,-1.35601 0.878132,-0.40573 1.096971,-0.43392 3.415189,-0.43982 2.41962,-0.006 2.49695,-0.0174 3.34228,-0.48579 2.5972,-1.43913 3.57849,-2.8388 3.45525,-4.92849 -0.0506,-0.85712 -0.0143,-1.11461 0.15678,-1.11461 0.12238,0 0.26912,0.18575 0.32612,0.41281 0.14048,0.55978 0.27772,0.52166 0.79154,-0.21978 0.47655,-0.68768 1.42294,-1.65255 1.42294,-1.45074 0,0.0688 -0.30069,0.4817 -0.66821,0.91754 -0.68638,0.81402 -1.31335,2.18918 -1.31335,2.88066 0,0.21466 -0.10811,0.69687 -0.24036,1.07158 -0.1322,0.3747 -0.217,0.68128 -0.18845,0.68128 0.0285,0 0.82407,-0.28651 1.76782,-0.63669 1.8114,-0.67211 3.22947,-1.33872 3.99156,-1.87635 0.5335,-0.37637 1.25133,-1.75093 1.6843,-3.2252 0.1667,-0.56762 0.36564,-1.03206 0.44208,-1.03206 0.0764,0 0.13898,0.0312 0.13898,0.0694 0,0.20707 -1.04462,3.00987 -1.17118,3.14234 -0.26003,0.27221 -0.1625,0.43948 0.15665,0.26867 0.40407,-0.21624 3.30439,-0.58509 3.45065,-0.43883 0.1812,0.18121 -0.32452,0.42083 -0.89396,0.42359 -0.91044,0.005 -2.51426,0.60926 -3.41127,1.28652 -1.19873,0.90505 -1.88318,1.2262 -4.07552,1.91226 -1.50056,0.46957 -2.21079,0.80326 -3.38514,1.59039 -2.23126,1.49553 -2.76725,1.65338 -5.61438,1.65338 -3.195036,0 -3.666686,0.17616 -5.816327,2.17248 -0.880289,0.81751 -2.106276,1.78684 -2.724433,2.15408 -1.192136,0.70823 -1.944922,1.4561 -1.944922,1.93223 0,0.66837 1.323288,1.33414 2.655821,1.33621 0.693459,9.7e-4 0.880192,0.13248 0.625102,0.43983 -0.2707,0.32618 -1.756565,0.26919 -2.566254,-0.0984 z m 29.999288,-0.0184 c 0,-0.64208 1.57973,-2.13847 2.25754,-2.13847 0.39338,0 0.23157,0.29046 -0.35443,0.63619 -0.3156,0.18622 -0.78002,0.63657 -1.03205,1.00082 -0.43436,0.62775 -0.87106,0.87915 -0.87106,0.50146 z M 95.948412,152.0395 c 0,-0.25248 0.346984,-0.43049 0.839154,-0.43049 0.408649,0 0.407183,0.27024 -0.0024,0.48959 -0.448442,0.23998 -0.836512,0.21257 -0.836512,-0.0591 z m -11.323117,-1.82228 c -0.174868,-0.12787 -0.260556,-0.28987 -0.19043,-0.36001 0.07017,-0.0702 0.251369,-0.003 0.402735,0.1477 0.356911,0.3569 0.200029,0.5138 -0.212305,0.21231 z m 43.440665,0.0335 c -0.18163,-0.1058 -0.99815,-0.42011 -1.81447,-0.6985 -1.07869,-0.36788 -1.50049,-0.59053 -1.54368,-0.81487 -0.052,-0.27019 0.0136,-0.29497 0.52636,-0.19877 0.78755,0.14775 2.90763,1.03157 3.27757,1.36635 0.5517,0.49928 0.23703,0.74338 -0.44578,0.34579 z m -17.17338,-0.45815 c 0.0562,-0.0908 0.24628,-0.16515 0.42255,-0.16515 0.1763,0 0.32053,0.0743 0.32053,0.16515 0,0.0907 -0.19016,0.16511 -0.42258,0.16511 -0.23967,0 -0.37838,-0.0716 -0.3205,-0.16511 z M 69.712679,149.24 c -0.377756,-0.45774 -0.12595,-1.45598 0.658007,-2.60858 0.609079,-0.89551 0.722608,-1.19508 0.773197,-2.04039 0.05369,-0.89786 0.0037,-1.08169 -0.530699,-1.96026 -0.660177,-1.08482 -0.663765,-1.09462 -0.401791,-1.09462 0.232377,0 0.540152,0.38104 0.988084,1.22329 l 0.343202,0.64532 0.410687,-0.52475 c 0.408759,-0.52229 1.327977,-1.11306 1.486021,-0.95502 0.04557,0.0455 -0.174248,0.2515 -0.488569,0.45753 -0.863951,0.56634 -1.276345,1.27202 -1.276345,2.18403 0,0.82236 -0.383368,1.7446 -1.136276,2.73341 -0.278239,0.36542 -0.457761,0.85176 -0.512834,1.38925 -0.07502,0.73169 -0.111019,0.79517 -0.312684,0.55079 z m 45.720931,-0.0335 c 0,-0.52166 1.28115,-0.89262 3.09617,-0.89652 0.93092,-0.002 1.69258,0.0614 1.69258,0.14087 0,0.20241 -0.85216,0.35025 -2.04348,0.35452 -0.64822,0.002 -1.26989,0.12096 -1.73124,0.33026 -0.86747,0.39362 -1.01403,0.40387 -1.01403,0.0709 z m 23.61342,-3.99226 c 0,-0.26267 0.10908,-0.62182 0.24245,-0.79812 0.35456,-0.46878 0.30677,-0.58053 -0.17064,-0.39901 -0.53045,0.20168 -1.55795,0.21064 -1.55795,0.0135 0,-0.21041 0.43161,-0.34793 1.09213,-0.34793 0.86082,0 1.58575,-0.37439 2.26784,-1.17126 0.84909,-0.99196 1.16919,-2.16474 1.02886,-3.76949 -0.0602,-0.68837 -0.14747,-1.69742 -0.19395,-2.24235 -0.10982,-1.28727 0.20724,-1.90818 1.45671,-2.85274 1.50079,-1.13453 1.66425,-2.34427 0.538,-3.98156 -0.62547,-0.90926 -0.53981,-1.23787 0.15485,-0.59409 0.91398,0.84706 1.38585,2.81309 0.90366,3.76513 -0.10045,0.19839 -0.65779,0.80927 -1.23846,1.35751 -0.99239,0.93697 -1.05568,1.04112 -1.05383,1.73387 9.7e-4,0.40536 0.11161,1.14571 0.24573,1.64522 0.65839,2.45287 -0.16558,4.97171 -1.9728,6.03081 -0.8885,0.52069 -1.09411,0.75949 -1.23124,1.42995 -0.1405,0.687 -0.51136,0.81792 -0.51136,0.18049 z m 5.32541,0.17734 c -0.36917,-0.15212 -0.21865,-0.51842 0.35998,-0.87604 0.78014,-0.48213 1.50602,-1.34586 1.74844,-2.08044 0.27027,-0.81891 0.13217,-2.49648 -0.32918,-3.99883 l -0.36875,-1.20083 0.4636,-1.33174 c 0.25497,-0.73247 0.55386,-1.45522 0.66421,-1.6061 0.41248,-0.56412 0.40007,-0.0165 -0.0309,1.36595 l -0.44489,1.42695 0.52203,1.13258 c 0.97313,2.11125 1.07209,3.94934 0.29521,5.48418 -0.53753,1.06196 -2.12983,1.9933 -2.8797,1.68432 z m -26.62701,-0.51566 c 0,-0.28223 0.0743,-0.55908 0.16511,-0.6152 0.33615,-0.20776 0.14615,-0.3782 -0.53666,-0.48146 -0.82694,-0.12506 -1.19808,-0.32326 -1.05098,-0.56125 0.0699,-0.11321 0.28696,-0.11951 0.6393,-0.0184 1.3441,0.38547 2.18137,0.10086 3.23951,-1.10124 1.40423,-1.5953 2.03575,-3.58712 2.06304,-6.50686 0.0246,-2.63863 -0.40229,-3.53918 -2.08367,-4.39504 -0.81178,-0.4132 -1.01471,-0.72394 -0.47277,-0.72394 0.53687,0 1.89408,1.03835 2.28418,1.74756 0.21579,0.39232 0.48005,1.35894 0.632,2.31179 0.68285,4.28212 1.33827,6.19662 2.36342,6.90365 1.13935,0.7858 2.48871,1.29434 3.63302,1.36923 1.48555,0.0971 1.8394,0.18389 1.8394,0.45073 0,0.75837 -2.57652,0.48751 -4.5508,-0.47842 -1.05194,-0.51467 -2.4462,-1.97856 -2.71424,-2.84982 -0.10496,-0.34118 -0.22814,-0.7318 -0.27373,-0.86803 -0.0491,-0.14663 -0.24618,0.1514 -0.4831,0.73048 -0.5518,1.34871 -1.34567,2.32935 -2.75301,3.40079 -0.65832,0.50119 -1.32048,1.15727 -1.47148,1.45795 -0.38787,0.77244 -0.46854,0.81163 -0.46854,0.22755 z m 15.90505,-1.8345 c -0.86581,-0.62719 -1.29148,-1.50886 -1.28488,-2.66125 0.008,-1.28351 0.93211,-3.1228 1.46688,-2.91759 0.20896,0.0802 0.16663,0.25494 -0.25488,1.05276 -0.43079,0.81537 -0.49576,1.09383 -0.43995,1.88595 0.0794,1.12721 0.41455,1.67615 1.37906,2.25873 0.4028,0.2433 0.73237,0.53578 0.73237,0.64998 0,0.3747 -0.92513,0.21928 -1.5986,-0.26858 z m -56.151823,-3.8564 c -0.0903,-0.11466 -0.210634,-0.40303 -0.267306,-0.64086 -0.106899,-0.44849 -0.671425,-0.87569 -3.137701,-2.37425 -0.712923,-0.43318 -1.753231,-1.15584 -2.311806,-1.60588 -1.326221,-1.06857 -1.78117,-1.29356 -2.835888,-1.40241 -1.266263,-0.13068 -1.620216,0.0152 -2.38957,0.98446 -0.37864,0.47707 -0.96154,1.05318 -1.295313,1.28022 -0.333773,0.22705 -0.873441,0.61716 -1.199263,0.86694 -0.635318,0.487 -0.892081,0.55518 -1.061082,0.2817 -0.180091,-0.29139 0.391609,-0.97116 1.311845,-1.55984 0.982037,-0.62822 1.688038,-1.39151 2.020236,-2.18427 0.372181,-0.88813 0.263198,-2.01754 -0.396555,-4.10993 -0.557132,-1.76689 -0.618229,-2.13777 -0.609187,-3.69772 0.01211,-2.01718 0.343093,-3.08071 1.397109,-4.48349 1.66432,-2.21499 5.333519,-4.16463 9.29464,-4.93871 1.814644,-0.35462 2.390769,-1.27129 2.205976,-3.50999 -0.06884,-0.83413 -0.04169,-1.1083 0.10484,-1.05909 0.230936,0.0776 0.273635,2.66152 0.05951,3.59811 l -0.134435,0.58789 1.660066,-0.19848 c 2.005497,-0.23978 2.848019,-0.66921 3.808301,-1.94109 1.663749,-2.20362 1.543204,-3.76097 -0.479189,-6.19112 -0.477141,-0.57335 -0.82324,-1.08674 -0.769112,-1.14086 0.05418,-0.0541 0.400542,0.14439 0.769814,0.44115 0.369261,0.29674 0.692586,0.51349 0.718499,0.48168 0.02594,-0.0319 0.13326,-0.31282 0.238583,-0.62444 0.245987,-0.72787 1.016189,-2.04522 1.129487,-1.93191 0.04775,0.0477 -0.106656,0.43334 -0.343336,0.85676 -0.236642,0.42341 -0.50738,1.05623 -0.601636,1.40625 -0.155682,0.57813 -0.121795,0.7239 0.370059,1.59185 0.491006,0.86644 0.541438,1.08247 0.541438,2.31932 0,1.07071 0.04751,1.34574 0.22085,1.2794 0.675739,-0.25857 1.465237,-0.2457 1.985754,0.0324 0.71513,0.38203 1.159353,1.10173 0.917086,1.4858 -0.294396,0.46672 -0.508302,0.41903 -0.869963,-0.19395 -0.190636,-0.32308 -0.552781,-0.66633 -0.804781,-0.76274 -0.645596,-0.24702 -1.621087,0.0698 -1.974736,0.64131 -0.698804,1.12932 -1.863367,2.08868 -3.024476,2.49152 -0.317884,0.1103 -1.469648,0.30571 -2.559503,0.43425 -8.106007,0.95614 -13.585669,5.01291 -13.046147,9.65847 0.05793,0.49951 0.360619,1.83303 0.672455,2.96333 0.389706,1.41255 0.566986,2.40739 0.566986,3.18189 v 1.12674 l 0.4541,-0.12699 c 1.452886,-0.40629 2.790438,0.0565 4.946358,1.71118 2.186934,1.67856 3.65966,2.39151 5.162238,2.49902 0.925011,0.0661 1.128542,0.1271 0.98852,0.29581 -0.09697,0.11685 -0.464705,0.26121 -0.817143,0.32076 l -0.64081,0.10823 0.319436,0.52387 c 0.376932,0.61817 0.405268,0.99119 0.0949,1.24877 -0.169777,0.14092 -0.266532,0.13569 -0.390047,-0.021 z m 2.77747,0.0485 c -0.257999,-0.15944 -0.109928,-0.26258 0.593165,-0.41331 0.704319,-0.151 1.883134,-1.21457 2.376116,-2.14385 0.40076,-0.75544 0.648603,-0.95606 0.648603,-0.52499 0,0.35634 -1.026602,1.76049 -1.659751,2.27015 -0.732764,0.58985 -1.681204,0.98315 -1.958133,0.812 z m 54.223233,-3.35216 c -0.12907,-0.3363 0.2142,-0.99241 0.47192,-0.90205 0.24351,0.0853 0.16247,0.61658 -0.14194,0.93044 -0.19782,0.20395 -0.2423,0.20012 -0.32998,-0.0284 z m -3.34223,-0.85178 -0.49332,-0.56187 -0.35437,0.47931 c -0.37695,0.50983 -0.79469,0.62408 -0.93594,0.25597 -0.0472,-0.12285 0.15642,-0.61282 0.45232,-1.08886 0.48562,-0.78117 0.54401,-1.01286 0.59909,-2.37743 0.0585,-1.45035 0.0407,-1.54355 -0.43832,-2.28812 -0.61544,-0.95659 -1.50781,-1.56469 -2.7719,-1.88889 -1.05734,-0.2712 -1.58306,-0.57522 -3.70231,-2.14108 -0.77886,-0.57548 -1.74489,-1.19547 -2.14668,-1.37776 -0.95647,-0.43393 -2.12809,-0.4327 -2.98235,0.003 -0.70433,0.35932 -0.98619,0.32554 -0.65123,-0.0781 0.28483,-0.34318 1.60572,-0.7591 2.41083,-0.7591 1.12643,0 2.1356,0.40192 4.09041,1.62912 1.01808,0.63913 2.3701,1.39724 3.00446,1.68467 1.03253,0.46786 1.27481,0.51465 2.3118,0.44662 1.319,-0.0865 2.50242,-0.60188 3.54483,-1.54365 0.35239,-0.31835 0.68518,-0.5069 0.7395,-0.41899 0.16541,0.26764 -1.63941,2.06819 -2.57612,2.57005 -0.48404,0.25934 -0.90852,0.49478 -0.94331,0.52323 -0.0348,0.0285 0.16551,0.31227 0.4451,0.63071 0.85083,0.96904 1.05332,2.23463 0.62299,3.89358 -0.27719,1.06864 -0.0906,1.71482 0.65124,2.25521 0.26581,0.19363 0.40903,0.41378 0.34091,0.524 -0.21592,0.34936 -0.71947,0.19562 -1.21763,-0.37175 z m -67.57806,-4.48531 c -0.08859,-0.23296 -0.161038,-0.55789 -0.161038,-0.72204 0,-0.38166 -1.332401,-1.61669 -1.897013,-1.7584 -0.236715,-0.0594 -0.742677,-0.062 -1.124384,-0.006 -0.640203,0.0943 -0.669146,0.083 -0.373467,-0.14527 0.739248,-0.57079 2.501595,-0.12457 3.5165,0.89032 0.539365,0.53935 0.920563,1.50838 0.758991,1.9294 -0.14458,0.37677 -0.544552,0.27216 -0.719589,-0.1882 z m 77.28636,-3.57596 c -0.26452,-0.43495 -0.3167,-0.78908 -0.28655,-1.94415 0.0443,-1.69942 -0.29212,-2.62863 -1.13115,-3.12367 -0.45418,-0.26797 -0.5606,-0.44858 -0.65808,-1.11669 -0.22441,-1.53827 -0.88974,-2.43129 -1.98014,-2.65783 -0.75643,-0.15717 -0.85914,-0.42723 -0.19165,-0.50387 0.82383,-0.0946 1.89265,0.5709 2.43463,1.51586 0.26776,0.46685 0.48753,1.04907 0.48838,1.29383 9.8e-4,0.31198 0.22027,0.65001 0.73315,1.13072 0.9533,0.89349 1.2832,1.73633 1.29001,3.29557 0.003,0.73739 0.10119,1.42822 0.2423,1.70747 0.49278,0.97554 -0.3684,1.34416 -0.9409,0.40276 z m -37.15597,-0.38045 c 0,-0.13849 0.20436,-0.32888 0.45412,-0.4231 0.24975,-0.0941 1.00114,-0.51153 1.66976,-0.92736 1.40455,-0.87353 1.82963,-1.56117 1.83559,-2.96934 0.005,-1.15351 -0.23134,-1.75582 -0.63802,-1.62675 -0.6781,0.21523 -2.73419,-0.56627 -2.3896,-0.90827 0.0779,-0.0773 0.59558,0.019 1.15146,0.21397 0.96397,0.33827 1.02966,0.3415 1.44275,0.0708 0.23805,-0.15598 0.58387,-0.57973 0.76853,-0.94168 0.18465,-0.36196 0.40416,-0.65811 0.48776,-0.65811 0.34976,0 0.33504,0.38664 -0.0464,1.21985 -0.26111,0.57036 -0.35406,0.966 -0.26132,1.11242 0.0792,0.12498 0.14344,0.78455 0.14283,1.4657 -9.7e-4,2.12191 -0.68825,3.04475 -3.08638,4.14973 -1.15918,0.53412 -1.53107,0.58807 -1.53107,0.2221 z M 57.974597,125.6946 c -0.475311,-0.88812 0.103263,-2.28847 1.294999,-3.13467 0.963515,-0.6841 1.506383,-1.43675 1.506383,-2.0885 0,-0.26713 -0.148325,-1.00434 -0.329604,-1.63823 -0.460899,-1.61169 -0.570609,-2.97277 -0.333397,-4.13602 0.575592,-2.82258 2.878659,-4.75946 5.864557,-4.93213 0.726559,-0.0421 1.787264,-0.19767 2.357112,-0.34589 1.201553,-0.31251 1.912246,-0.2775 1.983294,0.0977 0.03769,0.19906 -0.224379,0.33503 -1.071919,0.55612 -0.616993,0.16096 -1.319771,0.32855 -1.561723,0.37243 l -0.439909,0.0797 0.48119,0.75875 c 0.264652,0.41732 0.481188,0.91845 0.481188,1.11365 0,0.41166 0.387017,0.80567 1.032358,1.05102 0.249587,0.0949 0.453811,0.24869 0.453811,0.34176 0,0.24144 -0.501127,0.20726 -1.033609,-0.0706 -0.44347,-0.23134 -0.461759,-0.22304 -0.684948,0.31111 -0.12611,0.30184 -0.316127,0.60247 -0.422262,0.66805 -0.345275,0.2134 -0.407862,-0.0781 -0.121079,-0.5636 0.362848,-0.61426 0.354571,-1.0927 -0.02823,-1.63652 -0.169728,-0.24107 -0.360788,-0.60642 -0.424599,-0.8119 -0.168553,-0.5428 -1.21371,-1.19513 -1.914866,-1.19513 -0.705056,0 -1.825697,0.66755 -2.595087,1.54586 -1.457758,1.66416 -1.871584,3.72812 -1.21594,6.06469 0.415571,1.48099 0.450368,2.93505 0.08775,3.6677 -0.14384,0.29064 -0.738303,0.97969 -1.321033,1.53119 -1.037035,0.98148 -1.059494,1.02087 -1.059494,1.85771 0,0.7986 -0.02679,0.85495 -0.407013,0.85495 -0.233396,0 -0.479929,-0.13624 -0.577944,-0.31939 z m 68.811623,-3.25434 c -0.3283,-0.0947 -0.39779,-0.71219 -0.0825,-0.7337 0.11355,-0.008 0.57794,-0.003 1.03205,0.01 0.62525,0.018 1.0661,-0.0983 1.81641,-0.47921 1.3801,-0.70055 1.84391,-0.64805 1.03,0.1166 -0.78292,0.7355 -2.90597,1.34331 -3.7959,1.08672 z M 91.961936,120.6414 c -0.01284,-0.0875 -0.036,-0.828 -0.05126,-1.64539 -0.0217,-1.15562 -0.127952,-1.76161 -0.477917,-2.72463 -0.654869,-1.80203 -0.658505,-1.81642 -0.460851,-1.81642 0.49555,0 1.555457,3.1826 1.577032,4.7353 0.01091,0.77502 -0.05734,1.10269 -0.274665,1.32058 -0.15893,0.15939 -0.299497,0.21814 -0.312369,0.13056 z m 27.269644,-0.87961 c 0,-0.0783 0.22102,-0.42055 0.49116,-0.76047 0.52955,-0.66635 0.76177,-1.49523 0.59975,-2.14077 -0.11927,-0.47541 0.14325,-0.70169 0.48504,-0.41803 0.5184,0.43022 0.19908,2.23391 -0.53026,2.99516 -0.42246,0.44097 -1.04569,0.63414 -1.04569,0.32411 z m 9.81003,-2.44315 c -0.40179,-0.78163 -0.64213,-1.0257 -1.47103,-1.49367 -0.87288,-0.49279 -1.07918,-0.54561 -1.73385,-0.4439 -1.91945,0.29821 -3.84482,-0.0886 -5.06196,-1.01694 -0.31292,-0.23867 -0.76955,-0.81744 -1.01479,-1.28617 -0.53209,-1.01709 -1.69031,-2.21701 -2.72561,-2.82374 -0.99098,-0.58075 -6.04182,-2.17931 -7.89782,-2.49961 -1.33069,-0.22963 -1.56361,-0.22872 -2.49782,0.01 -1.23437,0.31532 -2.16832,0.89796 -2.59565,1.61931 -0.47432,0.80062 -0.67941,0.99338 -0.86237,0.81043 -0.20372,-0.20373 0.18026,-0.96403 0.76077,-1.50633 0.51207,-0.47841 0.53606,-0.69154 0.10798,-0.95891 -0.17632,-0.11005 -0.51973,-0.54004 -0.76314,-0.95538 -0.47838,-0.81631 -0.47024,-1.21227 0.01,-0.45644 0.48704,0.76746 1.11915,1.36745 1.44069,1.36745 0.16752,0 0.73589,-0.1453 1.26304,-0.32289 1.47024,-0.49528 2.89862,-0.58864 4.14008,-0.27059 1.04048,0.26656 1.05986,0.26531 1.44056,-0.0924 0.63705,-0.59847 0.49961,-1.04035 -0.68745,-2.21 -1.03276,-1.01762 -1.37213,-1.72779 -0.82564,-1.72779 0.13623,0 0.2477,0.0668 0.2477,0.14848 0,0.0817 0.43886,0.63275 0.97526,1.22463 0.53637,0.5919 1.02437,1.24957 1.08439,1.46153 0.3852,1.35993 0.95963,1.87117 2.64992,2.35834 1.32187,0.38101 3.50391,1.41573 4.16159,1.97345 0.29269,0.24818 0.90139,1.06253 1.35266,1.80965 0.45128,0.7471 0.95858,1.48334 1.12732,1.63605 0.75735,0.6854 3.02566,1.0192 4.11893,0.60612 0.57232,-0.21623 1.32317,-0.91084 1.63973,-1.51694 0.14443,-0.27646 0.37319,-0.45409 0.58483,-0.45409 0.308,0 0.33643,0.069 0.24946,0.60485 -0.054,0.33267 -0.32729,0.88998 -0.60733,1.23847 -0.39895,0.49644 -0.44977,0.6336 -0.23478,0.6336 0.51561,0 1.89558,0.88178 2.23209,1.42625 0.48533,0.78529 0.67891,1.55579 0.45778,1.8222 -0.33005,0.39771 -0.57873,0.23073 -1.06487,-0.71503 z m -1.48771,-6.91703 c -0.11673,-0.46512 -0.0162,-0.66114 0.25339,-0.49449 0.22111,0.13668 0.23314,0.91501 0.0141,0.91501 -0.0891,0 -0.20948,-0.18923 -0.26753,-0.42052 z m -57.530719,-3.94433 c 0,-0.25149 1.022165,-1.13112 1.981633,-1.70528 0.798116,-0.4776 2.878491,-1.03044 3.877131,-1.03027 1.693493,3.2e-4 4.898604,2.03427 4.040859,2.56437 -0.09526,0.0589 -0.336778,-0.0121 -0.536674,-0.15713 -1.631655,-1.18622 -3.020233,-1.74686 -4.326515,-1.74686 -1.427798,0 -3.500526,0.9155 -4.442795,1.96233 -0.365297,0.40584 -0.593639,0.44924 -0.593639,0.11283 z"
       id="path3724"
       inkscape:connector-curvature="0" />
  </g>
</svg>
